<svg id="SvgjsSvg1006" width="1076.4125213623047" height="460.50001525878906" xmlns="http://www.w3.org/2000/svg" version="1.1" xmlns:xlink="http://www.w3.org/1999/xlink" xmlns:svgjs="http://svgjs.com/svgjs"><defs id="SvgjsDefs1007"><marker id="SvgjsMarker1094" markerWidth="16" markerHeight="12" refX="10" refY="6" viewBox="0 0 16 12" orient="auto" markerUnits="userSpaceOnUse" stroke-dasharray="0,0"><path id="SvgjsPath1095" d="M0,3 L10,6 L0,9 L0,3" fill="#ff0000" stroke="#ff0000" stroke-width="1"></path></marker><marker id="SvgjsMarker1098" markerWidth="16" markerHeight="12" refX="10" refY="6" viewBox="0 0 16 12" orient="auto" markerUnits="userSpaceOnUse" stroke-dasharray="0,0"><path id="SvgjsPath1099" d="M0,3 L10,6 L0,9 L0,3" fill="#ff0000" stroke="#ff0000" stroke-width="1"></path></marker><marker id="SvgjsMarker1102" markerWidth="16" markerHeight="12" refX="10" refY="6" viewBox="0 0 16 12" orient="auto" markerUnits="userSpaceOnUse" stroke-dasharray="0,0"><path id="SvgjsPath1103" d="M0,3 L10,6 L0,9 L0,3" fill="#ff0000" stroke="#ff0000" stroke-width="1"></path></marker><marker id="SvgjsMarker1106" markerWidth="16" markerHeight="12" refX="10" refY="6" viewBox="0 0 16 12" orient="auto" markerUnits="userSpaceOnUse" stroke-dasharray="0,0"><path id="SvgjsPath1107" d="M0,3 L10,6 L0,9 L0,3" fill="#ff0000" stroke="#ff0000" stroke-width="1"></path></marker><marker id="SvgjsMarker1110" markerWidth="16" markerHeight="12" refX="10" refY="6" viewBox="0 0 16 12" orient="auto" markerUnits="userSpaceOnUse" stroke-dasharray="0,0"><path id="SvgjsPath1111" d="M0,3 L10,6 L0,9 L0,3" fill="#ff0000" stroke="#ff0000" stroke-width="1"></path></marker><marker id="SvgjsMarker1114" markerWidth="16" markerHeight="12" refX="10" refY="6" viewBox="0 0 16 12" orient="auto" markerUnits="userSpaceOnUse" stroke-dasharray="0,0"><path id="SvgjsPath1115" d="M0,3 L10,6 L0,9 L0,3" fill="#ff0000" stroke="#ff0000" stroke-width="1"></path></marker><marker id="SvgjsMarker1118" markerWidth="16" markerHeight="12" refX="10" refY="6" viewBox="0 0 16 12" orient="auto" markerUnits="userSpaceOnUse" stroke-dasharray="0,0"><path id="SvgjsPath1119" d="M0,3 L10,6 L0,9 L0,3" fill="#ff0000" stroke="#ff0000" stroke-width="1"></path></marker><marker id="SvgjsMarker1122" markerWidth="16" markerHeight="12" refX="10" refY="6" viewBox="0 0 16 12" orient="auto" markerUnits="userSpaceOnUse" stroke-dasharray="0,0"><path id="SvgjsPath1123" d="M0,3 L10,6 L0,9 L0,3" fill="#ff0000" stroke="#ff0000" stroke-width="1"></path></marker><marker id="SvgjsMarker1126" markerWidth="16" markerHeight="12" refX="10" refY="6" viewBox="0 0 16 12" orient="auto" markerUnits="userSpaceOnUse" stroke-dasharray="0,0"><path id="SvgjsPath1127" d="M0,3 L10,6 L0,9 L0,3" fill="#ff0000" stroke="#ff0000" stroke-width="1"></path></marker><marker id="SvgjsMarker1130" markerWidth="16" markerHeight="12" refX="10" refY="6" viewBox="0 0 16 12" orient="auto" markerUnits="userSpaceOnUse" stroke-dasharray="0,0"><path id="SvgjsPath1131" d="M0,3 L10,6 L0,9 L0,3" fill="#ff0000" stroke="#ff0000" stroke-width="1"></path></marker><marker id="SvgjsMarker1134" markerWidth="16" markerHeight="12" refX="10" refY="6" viewBox="0 0 16 12" orient="auto" markerUnits="userSpaceOnUse" stroke-dasharray="0,0"><path id="SvgjsPath1135" d="M0,3 L10,6 L0,9 L0,3" fill="#ff0000" stroke="#ff0000" stroke-width="1"></path></marker><marker id="SvgjsMarker1138" markerWidth="16" markerHeight="12" refX="10" refY="6" viewBox="0 0 16 12" orient="auto" markerUnits="userSpaceOnUse" stroke-dasharray="0,0"><path id="SvgjsPath1139" d="M0,3 L10,6 L0,9 L0,3" fill="#ff0000" stroke="#ff0000" stroke-width="1"></path></marker></defs><g id="SvgjsG1008" transform="translate(246.01249694824207,146.16665903727215)"><path id="SvgjsPath1009" d="M 0 4Q 0 0 4 0L 166 0Q 170 0 170 4L 170 42.599998474121094Q 170 46.599998474121094 166 46.599998474121094L 4 46.599998474121094Q 0 46.599998474121094 0 42.599998474121094Z" stroke="rgba(255,0,0,1)" stroke-width="1" fill-opacity="1" fill="#ffffff"></path><g id="SvgjsG1010"><text id="SvgjsText1011" font-family="微软雅黑" text-anchor="middle" font-size="22px" width="150px" fill="#323232" font-weight="700" align="middle" lineHeight="125%" anchor="middle" family="微软雅黑" size="22px" weight="700" font-style="" opacity="1" y="5.049999237060547" transform="rotate(0)"><tspan id="SvgjsTspan1012" dy="27" x="85"><tspan id="SvgjsTspan1013" style="text-decoration:;">挑选竞赛</tspan></tspan></text></g></g><g id="SvgjsG1014" transform="translate(457.6791636149088,146.16665903727215)"><path id="SvgjsPath1015" d="M 0 4Q 0 0 4 0L 166 0Q 170 0 170 4L 170 42.599998474121094Q 170 46.599998474121094 166 46.599998474121094L 4 46.599998474121094Q 0 46.599998474121094 0 42.599998474121094Z" stroke="rgba(255,0,0,1)" stroke-width="1" fill-opacity="1" fill="#ffffff"></path><g id="SvgjsG1016"><text id="SvgjsText1017" font-family="微软雅黑" text-anchor="middle" font-size="22px" width="150px" fill="#323232" font-weight="700" align="middle" lineHeight="125%" anchor="middle" family="微软雅黑" size="22px" weight="700" font-style="" opacity="1" y="5.049999237060547" transform="rotate(0)"><tspan id="SvgjsTspan1018" dy="27" x="85"><tspan id="SvgjsTspan1019" style="text-decoration:;">确定baseline</tspan></tspan></text></g></g><g id="SvgjsG1020" transform="translate(669.3458302815756,146.16665903727215)"><path id="SvgjsPath1021" d="M 0 4Q 0 0 4 0L 166 0Q 170 0 170 4L 170 42.599998474121094Q 170 46.599998474121094 166 46.599998474121094L 4 46.599998474121094Q 0 46.599998474121094 0 42.599998474121094Z" stroke="rgba(255,0,0,1)" stroke-width="1" fill-opacity="1" fill="#ffffff"></path><g id="SvgjsG1022"><text id="SvgjsText1023" font-family="微软雅黑" text-anchor="middle" font-size="22px" width="150px" fill="#323232" font-weight="700" align="middle" lineHeight="125%" anchor="middle" family="微软雅黑" size="22px" weight="700" font-style="" opacity="1" y="5.049999237060547" transform="rotate(0)"><tspan id="SvgjsTspan1024" dy="27" x="85"><tspan id="SvgjsTspan1025" style="text-decoration:;">选择trick</tspan></tspan></text></g></g><g id="SvgjsG1026" transform="translate(881.0124969482423,146.16665903727215)"><path id="SvgjsPath1027" d="M 0 4Q 0 0 4 0L 166 0Q 170 0 170 4L 170 42.599998474121094Q 170 46.599998474121094 166 46.599998474121094L 4 46.599998474121094Q 0 46.599998474121094 0 42.599998474121094Z" stroke="rgba(255,0,0,1)" stroke-width="1" fill-opacity="1" fill="#ffffff"></path><g id="SvgjsG1028"><text id="SvgjsText1029" font-family="微软雅黑" text-anchor="middle" font-size="22px" width="150px" fill="#323232" font-weight="700" align="middle" lineHeight="125%" anchor="middle" family="微软雅黑" size="22px" weight="700" font-style="" opacity="1" y="5.049999237060547" transform="rotate(0)"><tspan id="SvgjsTspan1030" dy="27" x="85"><tspan id="SvgjsTspan1031" style="text-decoration:;">调试模型</tspan></tspan></text></g></g><g id="SvgjsG1032" transform="translate(424.34583028157545,159.16665903727215)"><path id="SvgjsPath1033" d="M 0 6.6000000000000005L 15 6.6000000000000005L 15 0L 25 10L 15 20L 15 13.4L 0 13.4L 0 6.6000000000000005Z" stroke="rgba(255,0,0,1)" stroke-width="1" fill-opacity="1" fill="#ffffff"></path><g id="SvgjsG1034"><text id="SvgjsText1035" font-family="微软雅黑" text-anchor="middle" font-size="13px" width="25px" fill="#323232" font-weight="400" align="middle" lineHeight="125%" anchor="middle" family="微软雅黑" size="13px" weight="400" font-style="" opacity="1" y="0.3750000000000009" transform="rotate(0)"></text></g></g><g id="SvgjsG1036" transform="translate(847.6791636149089,159.16665903727215)"><path id="SvgjsPath1037" d="M 0 6.6000000000000005L 15 6.6000000000000005L 15 0L 25 10L 15 20L 15 13.4L 0 13.4L 0 6.6000000000000005Z" stroke="rgba(255,0,0,1)" stroke-width="1" fill-opacity="1" fill="#ffffff"></path><g id="SvgjsG1038"><text id="SvgjsText1039" font-family="微软雅黑" text-anchor="middle" font-size="13px" width="25px" fill="#323232" font-weight="400" align="middle" lineHeight="125%" anchor="middle" family="微软雅黑" size="13px" weight="400" font-style="" opacity="1" y="0.3750000000000009" transform="rotate(0)"></text></g></g><g id="SvgjsG1040" transform="translate(636.0124969482422,159.16665903727215)"><path id="SvgjsPath1041" d="M 0 6.6000000000000005L 15 6.6000000000000005L 15 0L 25 10L 15 20L 15 13.4L 0 13.4L 0 6.6000000000000005Z" stroke="rgba(255,0,0,1)" stroke-width="1" fill-opacity="1" fill="#ffffff"></path><g id="SvgjsG1042"><text id="SvgjsText1043" font-family="微软雅黑" text-anchor="middle" font-size="13px" width="25px" fill="#323232" font-weight="400" align="middle" lineHeight="125%" anchor="middle" family="微软雅黑" size="13px" weight="400" font-style="" opacity="1" y="0.3750000000000009" transform="rotate(0)"></text></g></g><g id="SvgjsG1044" transform="translate(246.41250610351562,24.99999237060547)"><path id="SvgjsPath1045" d="M 0 4Q 0 0 4 0L 166 0Q 170 0 170 4L 170 43Q 170 47 166 47L 4 47Q 0 47 0 43Z" stroke="rgba(255,0,0,1)" stroke-width="1" fill-opacity="1" fill="#ffffff"></path><g id="SvgjsG1046"><text id="SvgjsText1047" font-family="微软雅黑" text-anchor="middle" font-size="22px" width="150px" fill="#323232" font-weight="700" align="middle" lineHeight="125%" anchor="middle" family="微软雅黑" size="22px" weight="700" font-style="" opacity="1" y="5.25" transform="rotate(0)"><tspan id="SvgjsTspan1048" dy="27" x="85"><tspan id="SvgjsTspan1049" style="text-decoration:;">当前赛事</tspan></tspan></text></g></g><g id="SvgjsG1050" transform="translate(458.4125061035156,24.99999237060547)"><path id="SvgjsPath1051" d="M 0 4Q 0 0 4 0L 166 0Q 170 0 170 4L 170 43Q 170 47 166 47L 4 47Q 0 47 0 43Z" stroke="rgba(255,0,0,1)" stroke-width="1" fill-opacity="1" fill="#ffffff"></path><g id="SvgjsG1052"><text id="SvgjsText1053" font-family="微软雅黑" text-anchor="middle" font-size="22px" width="150px" fill="#323232" font-weight="700" align="middle" lineHeight="125%" anchor="middle" family="微软雅黑" size="22px" weight="700" font-style="" opacity="1" y="5.25" transform="rotate(0)"><tspan id="SvgjsTspan1054" dy="27" x="85"><tspan id="SvgjsTspan1055" style="text-decoration:;">往期竞赛</tspan></tspan></text></g></g><g id="SvgjsG1056" transform="translate(669.4125061035156,24.99999237060547)"><path id="SvgjsPath1057" d="M 0 4Q 0 0 4 0L 166 0Q 170 0 170 4L 170 43Q 170 47 166 47L 4 47Q 0 47 0 43Z" stroke="rgba(255,0,0,1)" stroke-width="1" fill-opacity="1" fill="#ffffff"></path><g id="SvgjsG1058"><text id="SvgjsText1059" font-family="微软雅黑" text-anchor="middle" font-size="22px" width="150px" fill="#323232" font-weight="700" align="middle" lineHeight="125%" anchor="middle" family="微软雅黑" size="22px" weight="700" font-style="" opacity="1" y="5.25" transform="rotate(0)"><tspan id="SvgjsTspan1060" dy="27" x="85"><tspan id="SvgjsTspan1061" style="text-decoration:;">自媒体推荐</tspan></tspan></text></g></g><g id="SvgjsG1062" transform="translate(881.4125061035156,24.99999237060547)"><path id="SvgjsPath1063" d="M 0 4Q 0 0 4 0L 166 0Q 170 0 170 4L 170 43Q 170 47 166 47L 4 47Q 0 47 0 43Z" stroke="rgba(255,0,0,1)" stroke-width="1" fill-opacity="1" fill="#ffffff"></path><g id="SvgjsG1064"><text id="SvgjsText1065" font-family="微软雅黑" text-anchor="middle" font-size="22px" width="150px" fill="#323232" font-weight="700" align="middle" lineHeight="125%" anchor="middle" family="微软雅黑" size="22px" weight="700" font-style="" opacity="1" y="5.25" transform="rotate(0)"><tspan id="SvgjsTspan1066" dy="27" x="85"><tspan id="SvgjsTspan1067" style="text-decoration:;">算力推荐</tspan></tspan></text></g></g><g id="SvgjsG1068" transform="translate(478.5124969482422,267.83332570393884)"><path id="SvgjsPath1069" d="M 0 4Q 0 0 4 0L 336 0Q 340 0 340 4L 340 42.599998474121094Q 340 46.599998474121094 336 46.599998474121094L 4 46.599998474121094Q 0 46.599998474121094 0 42.599998474121094Z" stroke="rgba(255,0,0,1)" stroke-width="1" fill-opacity="1" fill="#ffffff"></path><g id="SvgjsG1070"><text id="SvgjsText1071" font-family="微软雅黑" text-anchor="middle" font-size="22px" width="320px" fill="#323232" font-weight="700" align="middle" lineHeight="125%" anchor="middle" family="微软雅黑" size="22px" weight="700" font-style="" opacity="1" y="5.049999237060547" transform="rotate(0)"><tspan id="SvgjsTspan1072" dy="27" x="170"><tspan id="SvgjsTspan1073" style="text-decoration:;">NLPer-Arsenal-Notion</tspan></tspan></text></g></g><g id="SvgjsG1074" transform="translate(246.01249694824207,389.4999923706055)"><path id="SvgjsPath1075" d="M 0 4Q 0 0 4 0L 166 0Q 170 0 170 4L 170 42.599998474121094Q 170 46.599998474121094 166 46.599998474121094L 4 46.599998474121094Q 0 46.599998474121094 0 42.599998474121094Z" stroke="rgba(255,0,0,1)" stroke-width="1" fill-opacity="1" fill="#ffffff"></path><g id="SvgjsG1076"><text id="SvgjsText1077" font-family="微软雅黑" text-anchor="middle" font-size="22px" width="150px" fill="#323232" font-weight="700" align="middle" lineHeight="125%" anchor="middle" family="微软雅黑" size="22px" weight="700" font-style="" opacity="1" y="5.049999237060547" transform="rotate(0)"><tspan id="SvgjsTspan1078" dy="27" x="85"><tspan id="SvgjsTspan1079" style="text-decoration:;">baseline</tspan></tspan></text></g></g><g id="SvgjsG1080" transform="translate(563.5124969482422,389.4999923706055)"><path id="SvgjsPath1081" d="M 0 4Q 0 0 4 0L 166 0Q 170 0 170 4L 170 42.599998474121094Q 170 46.599998474121094 166 46.599998474121094L 4 46.599998474121094Q 0 46.599998474121094 0 42.599998474121094Z" stroke="rgba(255,0,0,1)" stroke-width="1" fill-opacity="1" fill="#ffffff"></path><g id="SvgjsG1082"><text id="SvgjsText1083" font-family="微软雅黑" text-anchor="middle" font-size="22px" width="150px" fill="#323232" font-weight="700" align="middle" lineHeight="125%" anchor="middle" family="微软雅黑" size="22px" weight="700" font-style="" opacity="1" y="5.049999237060547" transform="rotate(0)"><tspan id="SvgjsTspan1084" dy="27" x="85"><tspan id="SvgjsTspan1085" style="text-decoration:;">trick分析</tspan></tspan></text></g></g><g id="SvgjsG1086" transform="translate(881.0124969482422,389.4999923706055)"><path id="SvgjsPath1087" d="M 0 4Q 0 0 4 0L 166 0Q 170 0 170 4L 170 42.599998474121094Q 170 46.599998474121094 166 46.599998474121094L 4 46.599998474121094Q 0 46.599998474121094 0 42.599998474121094Z" stroke="rgba(255,0,0,1)" stroke-width="1" fill-opacity="1" fill="#ffffff"></path><g id="SvgjsG1088"><text id="SvgjsText1089" font-family="微软雅黑" text-anchor="middle" font-size="22px" width="150px" fill="#323232" font-weight="700" align="middle" lineHeight="125%" anchor="middle" family="微软雅黑" size="22px" weight="700" font-style="" opacity="1" y="5.049999237060547" transform="rotate(0)"><tspan id="SvgjsTspan1090" dy="27" x="85"><tspan id="SvgjsTspan1091" style="text-decoration:;">Talk Show </tspan></tspan></text></g></g><g id="SvgjsG1092"><path id="SvgjsPath1093" d="M331.4125061035156 145.99999237060547L331.4125061035156 108.63332494099936L331.4125061035156 108.63332494099936L331.4125061035156 71.99999237060547" stroke="#ff0000" stroke-width="1" fill="none" marker-end="url(#SvgjsMarker1094)"></path></g><g id="SvgjsG1096"><path id="SvgjsPath1097" d="M543.4125061035156 145.99999237060547L543.4125061035156 108.63332494099936L543.4125061035156 108.63332494099936L543.4125061035156 71.99999237060547" stroke="#ff0000" stroke-width="1" fill="none" marker-end="url(#SvgjsMarker1098)"></path></g><g id="SvgjsG1100"><path id="SvgjsPath1101" d="M754.4125061035156 145.99999237060547L754.4125061035156 108.63332494099936L754.4125061035156 108.63332494099936L754.4125061035156 71.99999237060547" stroke="#ff0000" stroke-width="1" fill="none" marker-end="url(#SvgjsMarker1102)"></path></g><g id="SvgjsG1104"><path id="SvgjsPath1105" d="M966.4125061035156 145.99999237060547L966.4125061035156 108.63332494099936L966.4125061035156 108.63332494099936L966.4125061035156 71.99999237060547" stroke="#ff0000" stroke-width="1" fill="none" marker-end="url(#SvgjsMarker1106)"></path></g><g id="SvgjsG1108"><path id="SvgjsPath1109" d="M331.4125061035156 192.99999237060547L649.4125061035156 267.83332570393884" stroke="#ff0000" stroke-width="1" fill="none" marker-end="url(#SvgjsMarker1110)"></path></g><g id="SvgjsG1112"><path id="SvgjsPath1113" d="M543.4125061035156 192.99999237060547L649.4125061035156 267.83332570393884" stroke="#ff0000" stroke-width="1" fill="none" marker-end="url(#SvgjsMarker1114)"></path></g><g id="SvgjsG1116"><path id="SvgjsPath1117" d="M754.4125061035156 192.99999237060547L649.4125061035156 267.83332570393884" stroke="#ff0000" stroke-width="1" fill="none" marker-end="url(#SvgjsMarker1118)"></path></g><g id="SvgjsG1120"><path id="SvgjsPath1121" d="M966.4125061035156 192.99999237060547L649.4125061035156 267.83332570393884" stroke="#ff0000" stroke-width="1" fill="none" marker-end="url(#SvgjsMarker1122)"></path></g><g id="SvgjsG1124"><path id="SvgjsPath1125" d="M649.4125061035156 314.83332570393884L331.4125061035156 389.99999237060547" stroke="#ff0000" stroke-width="1" fill="none" marker-end="url(#SvgjsMarker1126)"></path></g><g id="SvgjsG1128"><path id="SvgjsPath1129" d="M649.4125061035156 314.83332570393884L649.4125061035156 351.96665827433276L649.4125061035156 351.96665827433276L649.4125061035156 389.99999237060547" stroke="#ff0000" stroke-width="1" fill="none" marker-end="url(#SvgjsMarker1130)"></path></g><g id="SvgjsG1132"><path id="SvgjsPath1133" d="M649.4125061035156 314.83332570393884L966.4125061035155 389.99999237060547" stroke="#ff0000" stroke-width="1" fill="none" marker-end="url(#SvgjsMarker1134)"></path></g><g id="SvgjsG1136"><path id="SvgjsPath1137" d="M754.4125061035156 145.99999237060547L543.4125061035156 71.99999237060547" stroke="#ff0000" stroke-width="1" fill="none" marker-end="url(#SvgjsMarker1138)"></path></g><g id="SvgjsG1140" transform="translate(25.012496948242074,25.199993133544922)"><path id="SvgjsPath1141" d="M 0 4Q 0 0 4 0L 166 0Q 170 0 170 4L 170 42.599998474121094Q 170 46.599998474121094 166 46.599998474121094L 4 46.599998474121094Q 0 46.599998474121094 0 42.599998474121094Z" stroke="none" fill-opacity="1" fill="#ffffff"></path><g id="SvgjsG1142"><text id="SvgjsText1143" font-family="微软雅黑" text-anchor="middle" font-size="22px" width="150px" fill="#323232" font-weight="700" align="middle" lineHeight="125%" anchor="middle" family="微软雅黑" size="22px" weight="700" font-style="" opacity="1" y="5.049999237060547" transform="rotate(0)"><tspan id="SvgjsTspan1144" dy="27" x="85"><tspan id="SvgjsTspan1145" style="text-decoration:;">项目章节</tspan></tspan></text></g></g><g id="SvgjsG1146" transform="translate(25.012496948242074,145.8666598002116)"><path id="SvgjsPath1147" d="M 0 4Q 0 0 4 0L 166 0Q 170 0 170 4L 170 42.599998474121094Q 170 46.599998474121094 166 46.599998474121094L 4 46.599998474121094Q 0 46.599998474121094 0 42.599998474121094Z" stroke="none" fill-opacity="1" fill="#ffffff"></path><g id="SvgjsG1148"><text id="SvgjsText1149" font-family="微软雅黑" text-anchor="middle" font-size="22px" width="150px" fill="#323232" font-weight="700" align="middle" lineHeight="125%" anchor="middle" family="微软雅黑" size="22px" weight="700" font-style="" opacity="1" y="5.049999237060547" transform="rotate(0)"><tspan id="SvgjsTspan1150" dy="27" x="85"><tspan id="SvgjsTspan1151" style="text-decoration:;">竞赛流程</tspan></tspan></text></g></g><g id="SvgjsG1152" transform="translate(25.012496948242074,389.4999923706055)"><path id="SvgjsPath1153" d="M 0 4Q 0 0 4 0L 166 0Q 170 0 170 4L 170 42.599998474121094Q 170 46.599998474121094 166 46.599998474121094L 4 46.599998474121094Q 0 46.599998474121094 0 42.599998474121094Z" stroke="none" fill-opacity="1" fill="#ffffff"></path><g id="SvgjsG1154"><text id="SvgjsText1155" font-family="微软雅黑" text-anchor="middle" font-size="22px" width="150px" fill="#323232" font-weight="700" align="middle" lineHeight="125%" anchor="middle" family="微软雅黑" size="22px" weight="700" font-style="" opacity="1" y="5.049999237060547" transform="rotate(0)"><tspan id="SvgjsTspan1156" dy="27" x="85"><tspan id="SvgjsTspan1157" style="text-decoration:;">主要内容</tspan></tspan></text></g></g></svg>